<svg xmlns="http://www.w3.org/2000/svg" viewBox="0 0 500 340"><defs><filter id="c"><feTurbulence type="fractalNoise" baseFrequency=".9" numOctaves="2" result="n"/><feColorMatrix in="n" type="saturate" values="0"/><feComponentTransfer><feFuncA type="table" tableValues="0 .22"/></feComponentTransfer><feComposite in2="SourceGraphic" operator="in" result="t"/><feBlend in="SourceGraphic" in2="t" mode="multiply"/></filter><filter id="w"><feTurbulence baseFrequency=".03" numOctaves="2" seed="4"/><feDisplacementMap in="SourceGraphic" scale="6"/></filter></defs><g filter="url(#c)"><rect width="500" height="340" fill="#FFF7EC"/><g filter="url(#w)" stroke="#333" stroke-width="2.4" stroke-linejoin="round"><rect x="73" y="220" width="85" height="88" fill="hsl(42,70%,60%)" opacity=".85" transform="rotate(-5 250 170)"/><rect x="221" y="143" width="132" height="43" fill="hsl(38,70%,60%)" opacity=".85" transform="rotate(-5 250 170)"/><rect x="26" y="220" width="130" height="94" fill="hsl(245,70%,60%)" opacity=".85" transform="rotate(19 250 170)"/><rect x="241" y="139" width="107" height="95" fill="hsl(313,70%,60%)" opacity=".85" transform="rotate(10 250 170)"/><rect x="389" y="219" width="156" height="55" fill="hsl(100,70%,60%)" opacity=".85" transform="rotate(1 250 170)"/><rect x="214" y="123" width="118" height="76" fill="hsl(107,70%,60%)" opacity=".85" transform="rotate(-8 250 170)"/><rect x="48" y="56" width="75" height="92" fill="hsl(139,70%,60%)" opacity=".85" transform="rotate(7 250 170)"/><rect x="14" y="143" width="157" height="58" fill="hsl(249,70%,60%)" opacity=".85" transform="rotate(9 250 170)"/><rect x="147" y="46" width="148" height="71" fill="hsl(290,70%,60%)" opacity=".85" transform="rotate(13 250 170)"/></g></g></svg>