<svg xmlns="http://www.w3.org/2000/svg" viewBox="0 0 500 340"><defs><filter id="c"><feTurbulence type="fractalNoise" baseFrequency=".9" numOctaves="2" result="n"/><feColorMatrix in="n" type="saturate" values="0"/><feComponentTransfer><feFuncA type="table" tableValues="0 .22"/></feComponentTransfer><feComposite in2="SourceGraphic" operator="in" result="t"/><feBlend in="SourceGraphic" in2="t" mode="multiply"/></filter><filter id="w"><feTurbulence baseFrequency=".03" numOctaves="2" seed="4"/><feDisplacementMap in="SourceGraphic" scale="6"/></filter></defs><g filter="url(#c)"><rect width="500" height="340" fill="#FFF7EC"/><g filter="url(#w)" stroke="#333" stroke-width="2.4" stroke-linejoin="round"><rect x="376" y="141" width="96" height="93" fill="hsl(47,70%,60%)" opacity=".85" transform="rotate(15 250 170)"/><rect x="55" y="256" width="95" height="42" fill="hsl(332,70%,60%)" opacity=".85" transform="rotate(-13 250 170)"/><rect x="199" y="78" width="67" height="111" fill="hsl(224,70%,60%)" opacity=".85" transform="rotate(-3 250 170)"/><rect x="4" y="213" width="64" height="71" fill="hsl(66,70%,60%)" opacity=".85" transform="rotate(-19 250 170)"/><rect x="61" y="226" width="115" height="73" fill="hsl(321,70%,60%)" opacity=".85" transform="rotate(10 250 170)"/><rect x="241" y="163" width="81" height="103" fill="hsl(168,70%,60%)" opacity=".85" transform="rotate(13 250 170)"/><rect x="194" y="171" width="72" height="105" fill="hsl(115,70%,60%)" opacity=".85" transform="rotate(-20 250 170)"/><rect x="408" y="240" width="134" height="117" fill="hsl(34,70%,60%)" opacity=".85" transform="rotate(-19 250 170)"/><rect x="389" y="236" width="155" height="64" fill="hsl(261,70%,60%)" opacity=".85" transform="rotate(-5 250 170)"/></g></g></svg>