<svg xmlns="http://www.w3.org/2000/svg" viewBox="0 0 500 340"><defs><filter id="c"><feTurbulence type="fractalNoise" baseFrequency=".9" numOctaves="2" result="n"/><feColorMatrix in="n" type="saturate" values="0"/><feComponentTransfer><feFuncA type="table" tableValues="0 .22"/></feComponentTransfer><feComposite in2="SourceGraphic" operator="in" result="t"/><feBlend in="SourceGraphic" in2="t" mode="multiply"/></filter><filter id="w"><feTurbulence baseFrequency=".03" numOctaves="2" seed="4"/><feDisplacementMap in="SourceGraphic" scale="6"/></filter></defs><g filter="url(#c)"><rect width="500" height="340" fill="#2A2F8F"/><g filter="url(#w)" stroke="#333" stroke-width="2.4" stroke-linejoin="round"><circle cx="14" cy="111" r="2" fill="#fff" stroke="none"/><circle cx="206" cy="9" r="2" fill="#fff" stroke="none"/><circle cx="484" cy="118" r="2" fill="#fff" stroke="none"/><circle cx="466" cy="155" r="2" fill="#fff" stroke="none"/><circle cx="176" cy="157" r="2" fill="#fff" stroke="none"/><circle cx="163" cy="126" r="2" fill="#fff" stroke="none"/><circle cx="297" cy="113" r="2" fill="#fff" stroke="none"/><circle cx="314" cy="10" r="2" fill="#fff" stroke="none"/><circle cx="374" cy="68" r="2" fill="#fff" stroke="none"/><circle cx="135" cy="170" r="2" fill="#fff" stroke="none"/><circle cx="303" cy="105" r="2" fill="#fff" stroke="none"/><circle cx="375" cy="106" r="2" fill="#fff" stroke="none"/><circle cx="483" cy="75" r="2" fill="#fff" stroke="none"/><circle cx="209" cy="84" r="2" fill="#fff" stroke="none"/><circle cx="361" cy="126" r="2" fill="#fff" stroke="none"/><circle cx="70" cy="157" r="2" fill="#fff" stroke="none"/><circle cx="172" cy="77" r="2" fill="#fff" stroke="none"/><circle cx="199" cy="156" r="2" fill="#fff" stroke="none"/><circle cx="469" cy="6" r="2" fill="#fff" stroke="none"/><circle cx="187" cy="151" r="2" fill="#fff" stroke="none"/><circle cx="384" cy="141" r="2" fill="#fff" stroke="none"/><circle cx="214" cy="14" r="2" fill="#fff" stroke="none"/><circle cx="74" cy="124" r="2" fill="#fff" stroke="none"/><circle cx="286" cy="148" r="2" fill="#fff" stroke="none"/><circle cx="449" cy="142" r="2" fill="#fff" stroke="none"/><circle cx="389" cy="121" r="2" fill="#fff" stroke="none"/><circle cx="441" cy="91" r="2" fill="#fff" stroke="none"/><circle cx="342" cy="86" r="2" fill="#fff" stroke="none"/><circle cx="299" cy="56" r="2" fill="#fff" stroke="none"/><circle cx="447" cy="78" r="2" fill="#fff" stroke="none"/><circle cx="109" cy="81" r="2" fill="#fff" stroke="none"/><circle cx="32" cy="14" r="2" fill="#fff" stroke="none"/><circle cx="353" cy="116" r="2" fill="#fff" stroke="none"/><circle cx="163" cy="91" r="2" fill="#fff" stroke="none"/><circle cx="200" cy="24" r="2" fill="#fff" stroke="none"/><circle cx="339" cy="111" r="2" fill="#fff" stroke="none"/><circle cx="189" cy="10" r="2" fill="#fff" stroke="none"/><circle cx="146" cy="142" r="2" fill="#fff" stroke="none"/><circle cx="405" cy="92" r="2" fill="#fff" stroke="none"/><circle cx="323" cy="186" r="2" fill="#fff" stroke="none"/><circle cx="390" cy="80" r="40" fill="#FFF3B0"/><rect x="0" y="230" width="60" height="110" fill="#151526"/><rect x="60" y="200" width="50" height="140" fill="#151526"/><rect x="110" y="250" width="70" height="90" fill="#151526"/><rect x="180" y="170" width="40" height="170" fill="#151526"/><rect x="220" y="220" width="60" height="120" fill="#151526"/><rect x="280" y="190" width="50" height="150" fill="#151526"/><rect x="330" y="240" width="80" height="100" fill="#151526"/><rect x="410" y="210" width="90" height="130" fill="#151526"/></g></g></svg>