<svg xmlns="http://www.w3.org/2000/svg" viewBox="0 0 500 340"><defs><filter id="c"><feTurbulence type="fractalNoise" baseFrequency=".9" numOctaves="2" result="n"/><feColorMatrix in="n" type="saturate" values="0"/><feComponentTransfer><feFuncA type="table" tableValues="0 .22"/></feComponentTransfer><feComposite in2="SourceGraphic" operator="in" result="t"/><feBlend in="SourceGraphic" in2="t" mode="multiply"/></filter><filter id="w"><feTurbulence baseFrequency=".03" numOctaves="2" seed="4"/><feDisplacementMap in="SourceGraphic" scale="6"/></filter></defs><g filter="url(#c)"><rect width="500" height="340" fill="#FFF7EC"/><g filter="url(#w)" stroke="#333" stroke-width="2.4" stroke-linejoin="round"><rect x="182" y="41" width="158" height="54" fill="hsl(138,70%,60%)" opacity=".85" transform="rotate(8 250 170)"/><rect x="186" y="109" width="135" height="59" fill="hsl(151,70%,60%)" opacity=".85" transform="rotate(16 250 170)"/><rect x="39" y="200" width="123" height="118" fill="hsl(360,70%,60%)" opacity=".85" transform="rotate(11 250 170)"/><rect x="142" y="156" width="86" height="51" fill="hsl(154,70%,60%)" opacity=".85" transform="rotate(15 250 170)"/><rect x="173" y="20" width="86" height="117" fill="hsl(185,70%,60%)" opacity=".85" transform="rotate(-19 250 170)"/><rect x="278" y="221" width="65" height="45" fill="hsl(45,70%,60%)" opacity=".85" transform="rotate(-13 250 170)"/><rect x="51" y="165" width="156" height="65" fill="hsl(243,70%,60%)" opacity=".85" transform="rotate(17 250 170)"/><rect x="343" y="216" width="78" height="98" fill="hsl(198,70%,60%)" opacity=".85" transform="rotate(17 250 170)"/><rect x="380" y="259" width="80" height="58" fill="hsl(159,70%,60%)" opacity=".85" transform="rotate(9 250 170)"/></g></g></svg>