<svg xmlns="http://www.w3.org/2000/svg" viewBox="0 0 500 340"><defs><filter id="c"><feTurbulence type="fractalNoise" baseFrequency=".9" numOctaves="2" result="n"/><feColorMatrix in="n" type="saturate" values="0"/><feComponentTransfer><feFuncA type="table" tableValues="0 .22"/></feComponentTransfer><feComposite in2="SourceGraphic" operator="in" result="t"/><feBlend in="SourceGraphic" in2="t" mode="multiply"/></filter><filter id="w"><feTurbulence baseFrequency=".03" numOctaves="2" seed="4"/><feDisplacementMap in="SourceGraphic" scale="6"/></filter></defs><g filter="url(#c)"><rect width="500" height="340" fill="#2A2F8F"/><g filter="url(#w)" stroke="#333" stroke-width="2.4" stroke-linejoin="round"><circle cx="131" cy="73" r="2" fill="#fff" stroke="none"/><circle cx="57" cy="190" r="2" fill="#fff" stroke="none"/><circle cx="382" cy="38" r="2" fill="#fff" stroke="none"/><circle cx="449" cy="31" r="2" fill="#fff" stroke="none"/><circle cx="397" cy="16" r="2" fill="#fff" stroke="none"/><circle cx="201" cy="36" r="2" fill="#fff" stroke="none"/><circle cx="479" cy="37" r="2" fill="#fff" stroke="none"/><circle cx="403" cy="78" r="2" fill="#fff" stroke="none"/><circle cx="99" cy="19" r="2" fill="#fff" stroke="none"/><circle cx="91" cy="27" r="2" fill="#fff" stroke="none"/><circle cx="292" cy="175" r="2" fill="#fff" stroke="none"/><circle cx="381" cy="62" r="2" fill="#fff" stroke="none"/><circle cx="179" cy="166" r="2" fill="#fff" stroke="none"/><circle cx="191" cy="138" r="2" fill="#fff" stroke="none"/><circle cx="136" cy="71" r="2" fill="#fff" stroke="none"/><circle cx="138" cy="199" r="2" fill="#fff" stroke="none"/><circle cx="384" cy="182" r="2" fill="#fff" stroke="none"/><circle cx="470" cy="175" r="2" fill="#fff" stroke="none"/><circle cx="7" cy="39" r="2" fill="#fff" stroke="none"/><circle cx="113" cy="140" r="2" fill="#fff" stroke="none"/><circle cx="473" cy="138" r="2" fill="#fff" stroke="none"/><circle cx="236" cy="15" r="2" fill="#fff" stroke="none"/><circle cx="407" cy="130" r="2" fill="#fff" stroke="none"/><circle cx="63" cy="184" r="2" fill="#fff" stroke="none"/><circle cx="398" cy="32" r="2" fill="#fff" stroke="none"/><circle cx="201" cy="196" r="2" fill="#fff" stroke="none"/><circle cx="82" cy="163" r="2" fill="#fff" stroke="none"/><circle cx="83" cy="145" r="2" fill="#fff" stroke="none"/><circle cx="18" cy="33" r="2" fill="#fff" stroke="none"/><circle cx="297" cy="124" r="2" fill="#fff" stroke="none"/><circle cx="479" cy="16" r="2" fill="#fff" stroke="none"/><circle cx="409" cy="117" r="2" fill="#fff" stroke="none"/><circle cx="286" cy="55" r="2" fill="#fff" stroke="none"/><circle cx="24" cy="18" r="2" fill="#fff" stroke="none"/><circle cx="484" cy="176" r="2" fill="#fff" stroke="none"/><circle cx="412" cy="142" r="2" fill="#fff" stroke="none"/><circle cx="446" cy="85" r="2" fill="#fff" stroke="none"/><circle cx="94" cy="37" r="2" fill="#fff" stroke="none"/><circle cx="92" cy="145" r="2" fill="#fff" stroke="none"/><circle cx="113" cy="47" r="2" fill="#fff" stroke="none"/><circle cx="390" cy="80" r="40" fill="#FFF3B0"/><rect x="0" y="230" width="60" height="110" fill="#151526"/><rect x="60" y="200" width="50" height="140" fill="#151526"/><rect x="110" y="250" width="70" height="90" fill="#151526"/><rect x="180" y="170" width="40" height="170" fill="#151526"/><rect x="220" y="220" width="60" height="120" fill="#151526"/><rect x="280" y="190" width="50" height="150" fill="#151526"/><rect x="330" y="240" width="80" height="100" fill="#151526"/><rect x="410" y="210" width="90" height="130" fill="#151526"/></g></g></svg>